<?xml version="1.0" standalone="no"?><svg xmlns="http://www.w3.org/2000/svg" viewBox="0 0 1440 320"><path fill="#77B2E3" fill-opacity="1" d="M0,256L6.2,256C12.3,256,25,256,37,224C49.2,192,62,128,74,133.3C86.2,139,98,213,111,245.3C123.1,277,135,267,148,261.3C160,256,172,256,185,261.3C196.9,267,209,277,222,256C233.8,235,246,181,258,165.3C270.8,149,283,171,295,176C307.7,181,320,171,332,170.7C344.6,171,357,181,369,192C381.5,203,394,213,406,197.3C418.5,181,431,139,443,101.3C455.4,64,468,32,480,37.3C492.3,43,505,85,517,112C529.2,139,542,149,554,181.3C566.2,213,578,267,591,256C603.1,245,615,171,628,138.7C640,107,652,117,665,117.3C676.9,117,689,107,702,112C713.8,117,726,139,738,144C750.8,149,763,139,775,144C787.7,149,800,171,812,197.3C824.6,224,837,256,849,250.7C861.5,245,874,203,886,165.3C898.5,128,911,96,923,96C935.4,96,948,128,960,133.3C972.3,139,985,117,997,112C1009.2,107,1022,117,1034,138.7C1046.2,160,1058,192,1071,192C1083.1,192,1095,160,1108,144C1120,128,1132,128,1145,117.3C1156.9,107,1169,85,1182,106.7C1193.8,128,1206,192,1218,186.7C1230.8,181,1243,107,1255,106.7C1267.7,107,1280,181,1292,218.7C1304.6,256,1317,256,1329,224C1341.5,192,1354,128,1366,106.7C1378.5,85,1391,107,1403,144C1415.4,181,1428,235,1434,261.3L1440,288L1440,320L1433.8,320C1427.7,320,1415,320,1403,320C1390.8,320,1378,320,1366,320C1353.8,320,1342,320,1329,320C1316.9,320,1305,320,1292,320C1280,320,1268,320,1255,320C1243.1,320,1231,320,1218,320C1206.2,320,1194,320,1182,320C1169.2,320,1157,320,1145,320C1132.3,320,1120,320,1108,320C1095.4,320,1083,320,1071,320C1058.5,320,1046,320,1034,320C1021.5,320,1009,320,997,320C984.6,320,972,320,960,320C947.7,320,935,320,923,320C910.8,320,898,320,886,320C873.8,320,862,320,849,320C836.9,320,825,320,812,320C800,320,788,320,775,320C763.1,320,751,320,738,320C726.2,320,714,320,702,320C689.2,320,677,320,665,320C652.3,320,640,320,628,320C615.4,320,603,320,591,320C578.5,320,566,320,554,320C541.5,320,529,320,517,320C504.6,320,492,320,480,320C467.7,320,455,320,443,320C430.8,320,418,320,406,320C393.8,320,382,320,369,320C356.9,320,345,320,332,320C320,320,308,320,295,320C283.1,320,271,320,258,320C246.2,320,234,320,222,320C209.2,320,197,320,185,320C172.3,320,160,320,148,320C135.4,320,123,320,111,320C98.5,320,86,320,74,320C61.5,320,49,320,37,320C24.6,320,12,320,6,320L0,320Z"></path></svg>