<svg xmlns="http://www.w3.org/2000/svg" xmlns:xlink="http://www.w3.org/1999/xlink" version="1.0" x="0" y="0" width="2400" height="1611.2588573286278" viewBox="106.3775 82.28648895263672 127.245 85.42693054199219" preserveAspectRatio="xMidYMid meet" color-interpolation-filters="sRGB"><g><defs><linearGradient id="92" x1="0%" y1="0%" x2="100%" y2="0%"><stop offset="0%" stop-color="#fa71cd"></stop> <stop offset="100%" stop-color="#9b59b6"></stop></linearGradient><linearGradient id="93" x1="0%" y1="0%" x2="100%" y2="0%"><stop offset="0%" stop-color="#f9d423"></stop> <stop offset="100%" stop-color="#f83600"></stop></linearGradient><linearGradient id="94" x1="0%" y1="0%" x2="100%" y2="0%"><stop offset="0%" stop-color="#0064d2"></stop> <stop offset="100%" stop-color="#1cb0f6"></stop></linearGradient><linearGradient id="95" x1="0%" y1="0%" x2="100%" y2="0%"><stop offset="0%" stop-color="#f00978"></stop> <stop offset="100%" stop-color="#3f51b1"></stop></linearGradient><linearGradient id="96" x1="0%" y1="0%" x2="100%" y2="0%"><stop offset="0%" stop-color="#7873f5"></stop> <stop offset="100%" stop-color="#ec77ab"></stop></linearGradient><linearGradient id="97" x1="0%" y1="0%" x2="100%" y2="0%"><stop offset="0%" stop-color="#f9d423"></stop> <stop offset="100%" stop-color="#e14fad"></stop></linearGradient><linearGradient id="98" x1="0%" y1="0%" x2="100%" y2="0%"><stop offset="0%" stop-color="#009efd"></stop> <stop offset="100%" stop-color="#2af598"></stop></linearGradient><linearGradient id="99" x1="0%" y1="0%" x2="100%" y2="0%"><stop offset="0%" stop-color="#ffcc00"></stop> <stop offset="100%" stop-color="#00b140"></stop></linearGradient><linearGradient id="100" x1="0%" y1="0%" x2="100%" y2="0%"><stop offset="0%" stop-color="#d51007"></stop> <stop offset="100%" stop-color="#ff8177"></stop></linearGradient><linearGradient id="102" x1="0%" y1="0%" x2="100%" y2="0%"><stop offset="0%" stop-color="#a2b6df"></stop> <stop offset="100%" stop-color="#0c3483"></stop></linearGradient><linearGradient id="103" x1="0%" y1="0%" x2="100%" y2="0%"><stop offset="0%" stop-color="#7ac5d8"></stop> <stop offset="100%" stop-color="#eea2a2"></stop></linearGradient><linearGradient id="104" x1="0%" y1="0%" x2="100%" y2="0%"><stop offset="0%" stop-color="#00ecbc"></stop> <stop offset="100%" stop-color="#007adf"></stop></linearGradient><linearGradient id="105" x1="0%" y1="0%" x2="100%" y2="0%"><stop offset="0%" stop-color="#b88746"></stop> <stop offset="100%" stop-color="#fdf5a6"></stop></linearGradient></defs><g class="imagesvg isNoFont" transform="translate(113.625,89.53398895263672)"><g mask="url(#a9057a7c-f7e0-41fb-825c-75f91b9290ff)"><rect fill="#FEFEFD" fill-opacity="0" stroke-width="2" x="0" y="0" width="112.75" height="70.93202478688937" class="image-rect"></rect> <svg x="0" y="0" width="112.75" height="70.93202478688937" filtersec="colorsb1701028801" class="image-svg-svg primary" style="overflow: visible;"><svg xmlns="http://www.w3.org/2000/svg" viewBox="1 0 213 134"><g fill="none" fill-rule="evenodd"><path d="M39.626 98.28c-4.393-14.629.34-30.82 11.92-46.28-15.561 16.083-22.806 33.651-18.153 49.147C38.956 119.673 60.305 131.171 89 134c-25.46-5.252-43.923-17.568-49.374-35.72" fill="#333"></path><path d="M120.048 19.784l1.165.003c38.399.2 72.271 10.33 92.787 25.734l-.65-.365c-20.898-11.64-50.515-18.91-83.368-18.91l-1.895.009C65.663 26.787 15.37 53.552 15.37 86.492l.004.487c.19 12.651 7.804 24.37 20.657 34.021l-.567-.324C16.817 109.962 5.436 95.695 5.436 80.03c0-33.272 51.314-60.245 114.612-60.245zM15.87 34.577l.48 2.566.037.168a2.38 2.38 0 0 0 1.868 1.734l2.572.478-2.572.478-.168.038a2.379 2.379 0 0 0-1.737 1.863l-.48 2.567-.479-2.567-.038-.168a2.38 2.38 0 0 0-1.867-1.733l-2.572-.478 2.572-.478.168-.038a2.38 2.38 0 0 0 1.737-1.864l.48-2.566zm15.369-18.18l.752 4.028.042.196a3.735 3.735 0 0 0 2.949 2.788l4.037.75-4.037.751-.196.042a3.734 3.734 0 0 0-2.795 2.943l-.752 4.028-.752-4.028-.042-.196a3.736 3.736 0 0 0-2.95-2.789l-4.037-.75 4.037-.75.197-.043a3.734 3.734 0 0 0 2.795-2.942l.752-4.029zm24.8 0l.48 2.566.037.168a2.38 2.38 0 0 0 1.868 1.733l2.572.478-2.572.478-.169.038a2.379 2.379 0 0 0-1.737 1.864l-.479 2.566-.479-2.566-.038-.168a2.38 2.38 0 0 0-1.867-1.734l-2.573-.478 2.573-.478.168-.038a2.38 2.38 0 0 0 1.737-1.863l.48-2.567zM10.914 0l.958 5.133.045.213a4.76 4.76 0 0 0 3.766 3.59l5.144.956-5.144.956-.213.045a4.758 4.758 0 0 0-3.598 3.758l-.958 5.133-.959-5.133-.045-.213a4.76 4.76 0 0 0-3.766-3.59L1 9.892l5.144-.956.213-.045a4.758 4.758 0 0 0 3.598-3.758L10.914 0zm31.312 2.463l.479 2.566.038.168a2.38 2.38 0 0 0 1.868 1.734l2.571.478-2.571.478-.17.038a2.38 2.38 0 0 0-1.736 1.864l-.48 2.566-.479-2.566-.037-.169a2.38 2.38 0 0 0-1.868-1.733l-2.572-.478 2.572-.478.169-.038a2.379 2.379 0 0 0 1.736-1.864l.48-2.566z" fill="#BD9733"></path></g></svg><rect v-gra="id" width="124.75" height="82.93193054199219" transform="translate(-6, -6)" style="pointer-events:none;" fill="url(#e_e25GjAT9nEV5PHcRaJq)"></rect></svg> </g></g><defs v-gra="od"></defs><defs v-gra="id"><filter id="3f7062ab-53f4-4cee-a6a3-c922ba32a3d7" filterUnits="userSpaceOnUse"><feColorMatrix type="matrix" values="0 0 0 0 0.99609375  0 0 0 0 0.99609375  0 0 0 0 0.99609375  0 0 0 1 0"></feColorMatrix></filter><linearGradient x1="0" y1="1" x2="0" y2="0" id="e_e25GjAT9nEV5PHcRaJq"><stop offset="0%" stop-color="#2ebef3"></stop><stop offset="100%" stop-color="#fffc9f"></stop></linearGradient><filter id="42443b3f1de60f6b6fd3b6a9844b4764" filterUnits="objectBoundingBox"><feColorMatrix type="matrix" values="0 0 0 0 0.99609375  0 0 0 0 0.99609375  0 0 0 0 0.99609375  0 0 0 1 0"></feColorMatrix></filter></defs><mask v-gra="im" id="a9057a7c-f7e0-41fb-825c-75f91b9290ff"><svg x="0" y="0" width="112.75" height="70.93202478688937" filtersec="colorsb1701028801" class="image-svg-svg primary" style="overflow: visible;" filter="url(#3f7062ab-53f4-4cee-a6a3-c922ba32a3d7)"><svg xmlns="http://www.w3.org/2000/svg" viewBox="1 0 213 134"><g fill="none" fill-rule="evenodd"><path d="M39.626 98.28c-4.393-14.629.34-30.82 11.92-46.28-15.561 16.083-22.806 33.651-18.153 49.147C38.956 119.673 60.305 131.171 89 134c-25.46-5.252-43.923-17.568-49.374-35.72" fill="#333"></path><path d="M120.048 19.784l1.165.003c38.399.2 72.271 10.33 92.787 25.734l-.65-.365c-20.898-11.64-50.515-18.91-83.368-18.91l-1.895.009C65.663 26.787 15.37 53.552 15.37 86.492l.004.487c.19 12.651 7.804 24.37 20.657 34.021l-.567-.324C16.817 109.962 5.436 95.695 5.436 80.03c0-33.272 51.314-60.245 114.612-60.245zM15.87 34.577l.48 2.566.037.168a2.38 2.38 0 0 0 1.868 1.734l2.572.478-2.572.478-.168.038a2.379 2.379 0 0 0-1.737 1.863l-.48 2.567-.479-2.567-.038-.168a2.38 2.38 0 0 0-1.867-1.733l-2.572-.478 2.572-.478.168-.038a2.38 2.38 0 0 0 1.737-1.864l.48-2.566zm15.369-18.18l.752 4.028.042.196a3.735 3.735 0 0 0 2.949 2.788l4.037.75-4.037.751-.196.042a3.734 3.734 0 0 0-2.795 2.943l-.752 4.028-.752-4.028-.042-.196a3.736 3.736 0 0 0-2.95-2.789l-4.037-.75 4.037-.75.197-.043a3.734 3.734 0 0 0 2.795-2.942l.752-4.029zm24.8 0l.48 2.566.037.168a2.38 2.38 0 0 0 1.868 1.733l2.572.478-2.572.478-.169.038a2.379 2.379 0 0 0-1.737 1.864l-.479 2.566-.479-2.566-.038-.168a2.38 2.38 0 0 0-1.867-1.734l-2.573-.478 2.573-.478.168-.038a2.38 2.38 0 0 0 1.737-1.863l.48-2.567zM10.914 0l.958 5.133.045.213a4.76 4.76 0 0 0 3.766 3.59l5.144.956-5.144.956-.213.045a4.758 4.758 0 0 0-3.598 3.758l-.958 5.133-.959-5.133-.045-.213a4.76 4.76 0 0 0-3.766-3.59L1 9.892l5.144-.956.213-.045a4.758 4.758 0 0 0 3.598-3.758L10.914 0zm31.312 2.463l.479 2.566.038.168a2.38 2.38 0 0 0 1.868 1.734l2.571.478-2.571.478-.17.038a2.38 2.38 0 0 0-1.736 1.864l-.48 2.566-.479-2.566-.037-.169a2.38 2.38 0 0 0-1.868-1.733l-2.572-.478 2.572-.478.169-.038a2.379 2.379 0 0 0 1.736-1.864l.48-2.566z" fill="#BD9733"></path></g></svg></svg></mask></g></svg>