<?xml version="1.0" encoding="utf-8" standalone="yes"?>
<!DOCTYPE svg PUBLIC "-//W3C//DTD SVG 1.1//EN" "http://www.w3.org/Graphics/SVG/1.1/DTD/svg11.dtd">
<svg width="1025" height="359" viewBox="0 0 1025 359" style="fill:none;stroke:none;fill-rule:evenodd;clip-rule:evenodd;stroke-linecap:round;stroke-linejoin:round;stroke-miterlimit:1.5;" version="1.1" xmlns="http://www.w3.org/2000/svg" xmlns:xlink="http://www.w3.org/1999/xlink"><g id="items" style="isolation: isolate"><g id="blend" style="mix-blend-mode: normal"><g id="g-root-6.cu_sy_vbqcv31uwlwqx-fill" data-item-order="-133974" transform="translate(745.0668334960938, 78)"></g><g id="g-root-5.cu_sy_i09uhr1uwlybu-fill" data-item-order="-133970" transform="translate(616.1470336914062, 170.085693359375)"></g><g id="g-root-4.cu_sy_dkgcdb1uwlz43-fill" data-item-order="-133966" transform="translate(487.22735595703125, 124.042724609375)"></g><g id="g-root-3.cu_sy_4pft7j1uwlwr0-fill" data-item-order="-133962" transform="translate(358.3075866699219, 147.064208984375)"></g><g id="g-root-2.cu_sy_9mb331uwlxj9-fill" data-item-order="-133958" transform="translate(229.38787841796875, 78)"></g><g id="g-root-1.cu_sy_1qf3ctb1uwly4u-fill" data-item-order="-133954" transform="translate(135.00018310546875, 170.085693359375)"></g><g id="g-root-stat_147dd3z1uwylms-fill" data-item-order="0" transform="translate(287.3583984375, 83.021484375)"></g><g id="g-root-myth_hs5odb1uwsxdz-fill" data-item-order="0" transform="translate(803.0374145507812, 83.021484375)"></g><g id="g-root-acco_me7xcv1uwsy6m-fill" data-item-order="0" transform="translate(545.1979370117188, 129.064208984375)"></g><g id="g-root-go_1q9h31b1uwx5ot-fill" data-item-order="0" transform="translate(416.2781677246094, 175.10693359375)"></g><g id="g-root-cent_4pft7j1uwymfi-fill" data-item-order="0" transform="translate(158.4386749267578, 221.149658203125)"></g><g id="g-root-2_1upx28v1uwsxkz-fill" data-item-order="0" transform="translate(674.1176147460938, 221.149658203125)"></g><g id="g-root-6.cu_sy_vbqcv31uwlwqx-stroke" data-item-order="-133974" transform="translate(745.0668334960938, 78)"><g id="6.cu_sy_vbqcv31uwlwqx-stroke" fill="none" stroke-linecap="round" stroke-linejoin="round" stroke-miterlimit="4" stroke="#969696" stroke-width="2"><g><path d="M 107.07634 42.229939C 108.308434 39.409973 108.991928 36.295486 108.991928 33.021385C 108.991928 29.747282 108.308434 26.632793 107.07634 23.81283L 122.804764 23.81283L 122.804764 23.04545C 122.804764 22.197803 123.491859 21.510691 124.339516 21.510691L 127.409035 21.510691L 127.409035 44.532074L 124.339516 44.532074C 123.491859 44.532074 122.804764 43.844963 122.804764 42.997318L 122.804764 42.229939L 107.07634 42.229939ZM 64.864754 42.229939L 49.136333 42.229939L 49.136333 42.997318C 49.136333 43.844963 48.44923 44.532074 47.601574 44.532074L 44.532055 44.532074L 44.532055 21.510691L 47.601574 21.510691C 48.44923 21.510691 49.136333 22.197803 49.136333 23.04545L 49.136333 23.81283L 64.864754 23.81283C 63.632656 26.632793 62.949162 29.747282 62.949162 33.021385C 62.949162 36.295486 63.632656 39.409973 64.864754 42.229939ZM 122.804764 23.81283L 122.804764 42.229939M 49.136333 42.229939L 49.136333 23.81283M 9.999979 102.085533L 9.999979 99.016014C 9.999979 98.168373 10.68708 97.481262 11.534739 97.481262L 12.302118 97.481262L 12.302118 60.647045L 11.534739 60.647045C 10.68708 60.647045 9.999979 59.95993 9.999979 59.112286L 9.999979 56.042767L 33.021362 56.042767L 33.021362 59.112286C 33.021362 59.95993 32.334263 60.647045 31.486605 60.647045L 30.719225 60.647045L 30.719225 97.481262L 31.486605 97.481262C 32.334263 97.481262 33.021362 98.168373 33.021362 99.016014L 33.021362 102.085533L 9.999979 102.085533ZM 12.302118 97.481262L 30.719225 97.481262M 12.302118 60.647045L 30.719225 60.647045M 12.302118 42.229939C 12.302118 32.058475 20.547747 23.81283 30.719225 23.81283L 39.92778 23.81283L 39.92778 23.04545C 39.92778 22.197803 40.61488 21.510691 41.462536 21.510691L 44.532055 21.510691L 44.532055 44.532074L 41.462536 44.532074C 40.61488 44.532074 39.92778 43.844963 39.92778 42.997318L 39.92778 42.229939L 33.788742 42.229939C 32.093521 42.229939 30.719225 43.604237 30.719225 45.299454L 30.719225 51.438492L 31.486605 51.438492C 32.334263 51.438492 33.021362 52.125603 33.021362 52.973251L 33.021362 56.042767L 9.999979 56.042767L 9.999979 52.973251C 9.999979 52.125603 10.68708 51.438492 11.534739 51.438492L 12.302118 51.438492L 12.302118 42.229939ZM 39.92778 23.81283L 39.92778 42.229939M 30.719225 51.438492L 12.302118 51.438492M 108.991928 33.021385C 108.991928 45.735706 98.68486 56.042767 85.970543 56.042767C 73.256233 56.042767 62.949162 45.735706 62.949162 33.021385C 62.949162 20.30706 73.256233 10 85.970543 10C 98.68486 10 108.991928 20.30706 108.991928 33.021385Z"></path></g></g></g><g id="g-root-5.cu_sy_i09uhr1uwlybu-stroke" data-item-order="-133970" transform="translate(616.1470336914062, 170.085693359375)"><g id="5.cu_sy_i09uhr1uwlybu-stroke" fill="none" stroke-linecap="round" stroke-linejoin="round" stroke-miterlimit="4" stroke="#969696" stroke-width="2"><g><path d="M 107.076385 88.272705C 108.308487 85.452736 108.991982 82.338257 108.991982 79.064156C 108.991982 75.790054 108.308487 72.675568 107.076385 69.855598L 122.80481 69.855598L 122.80481 69.088219C 122.80481 68.240562 123.491913 67.553459 124.339569 67.553459L 127.409088 67.553459L 127.409088 90.574844L 124.339569 90.574844C 123.491913 90.574844 122.80481 89.887749 122.80481 89.040085L 122.80481 88.272705L 107.076385 88.272705ZM 64.864807 88.272705L 49.136383 88.272705L 49.136383 89.040085C 49.136383 89.887749 48.44928 90.574844 47.601624 90.574844L 44.532104 90.574844L 44.532104 67.553459L 47.601624 67.553459C 48.44928 67.553459 49.136383 68.240562 49.136383 69.088219L 49.136383 69.855598L 64.864807 69.855598C 63.632706 72.675568 62.949211 75.790054 62.949211 79.064156C 62.949211 82.338257 63.632706 85.452736 64.864807 88.272705ZM 122.80481 69.855598L 122.80481 88.272705M 49.136383 88.272705L 49.136383 69.855598M 10.00003 56.04277L 10.00003 52.973251C 10.00003 52.125607 10.68713 51.438492 11.534788 51.438492L 12.302168 51.438492L 12.302168 37.625664L 11.534788 37.625664C 10.68713 37.625664 10.00003 36.938549 10.00003 36.090904L 10.00003 33.021385L 33.021412 33.021385L 33.021412 36.090904C 33.021412 36.938549 32.334312 37.625664 31.486654 37.625664L 30.719275 37.625664L 30.719275 51.438492L 31.486654 51.438492C 32.334312 51.438492 33.021412 52.125607 33.021412 52.973251L 33.021412 56.04277L 10.00003 56.04277ZM 12.302168 51.438492L 30.719275 51.438492M 12.302168 37.625664L 30.719275 37.625664M 138.919785 56.04277L 138.919785 52.973251C 138.919785 52.125607 139.606873 51.438492 140.454544 51.438492L 141.221924 51.438492L 141.221924 14.604279L 140.454544 14.604279C 139.606873 14.604279 138.919785 13.917167 138.919785 13.06952L 138.919785 10.000002L 161.941162 10.000002L 161.941162 13.06952C 161.941162 13.917167 161.254059 14.604279 160.406403 14.604279L 159.639023 14.604279L 159.639023 51.438492L 160.406403 51.438492C 161.254059 51.438492 161.941162 52.125607 161.941162 52.973251L 161.941162 56.04277L 138.919785 56.04277ZM 141.221924 51.438492L 159.639023 51.438492M 141.221924 14.604279L 159.639023 14.604279M 12.302168 69.855598C 12.302168 80.027054 20.547796 88.272705 30.719275 88.272705L 39.92783 88.272705L 39.92783 89.040085C 39.92783 89.887749 40.614929 90.574844 41.462589 90.574844L 44.532104 90.574844L 44.532104 67.553459L 41.462589 67.553459C 40.614929 67.553459 39.92783 68.240562 39.92783 69.088219L 39.92783 69.855598L 33.788792 69.855598C 32.093571 69.855598 30.719275 68.481308 30.719275 66.786079L 30.719275 60.647045L 31.486654 60.647045C 32.334312 60.647045 33.021412 59.959946 33.021412 59.112289L 33.021412 56.04277L 10.00003 56.04277L 10.00003 59.112289C 10.00003 59.959946 10.68713 60.647045 11.534788 60.647045L 12.302168 60.647045L 12.302168 69.855598ZM 39.92783 88.272705L 39.92783 69.855598M 30.719275 60.647045L 12.302168 60.647045M 159.639023 69.855598C 159.639023 80.027054 151.393402 88.272705 141.221924 88.272705L 132.013367 88.272705L 132.013367 89.040085C 132.013367 89.887749 131.326263 90.574844 130.478607 90.574844L 127.409088 90.574844L 127.409088 67.553459L 130.478607 67.553459C 131.326263 67.553459 132.013367 68.240562 132.013367 69.088219L 132.013367 69.855598L 138.152405 69.855598C 139.847626 69.855598 141.221924 68.481308 141.221924 66.786079L 141.221924 60.647045L 140.454544 60.647045C 139.606873 60.647045 138.919785 59.959946 138.919785 59.112289L 138.919785 56.04277L 161.941162 56.04277L 161.941162 59.112289C 161.941162 59.959946 161.254059 60.647045 160.406403 60.647045L 159.639023 60.647045L 159.639023 69.855598ZM 132.013367 88.272705L 132.013367 69.855598M 141.221924 60.647045L 159.639023 60.647045M 108.991982 79.064156C 108.991982 91.778488 98.684906 102.085541 85.970596 102.085541C 73.256287 102.085541 62.949211 91.778488 62.949211 79.064156C 62.949211 66.349815 73.256287 56.04277 85.970596 56.04277C 98.684906 56.04277 108.991982 66.349815 108.991982 79.064156Z"></path></g></g></g><g id="g-root-4.cu_sy_dkgcdb1uwlz43-stroke" data-item-order="-133966" transform="translate(487.22735595703125, 124.042724609375)"><g id="4.cu_sy_dkgcdb1uwlz43-stroke" fill="none" stroke-linecap="round" stroke-linejoin="round" stroke-miterlimit="4" stroke="#969696" stroke-width="2"><g><path d="M 107.076378 42.229931C 108.308472 39.409962 108.991966 36.295479 108.991966 33.021378C 108.991966 29.747276 108.308472 26.632795 107.076378 23.812826L 122.804802 23.812826L 122.804802 23.045446C 122.804802 22.1978 123.491898 21.510687 124.339561 21.510687L 127.409073 21.510687L 127.409073 44.53207L 124.339561 44.53207C 123.491898 44.53207 122.804802 43.844955 122.804802 42.997311L 122.804802 42.229931L 107.076378 42.229931ZM 64.864792 42.229931L 49.136372 42.229931L 49.136372 42.997311C 49.136372 43.844955 48.449272 44.53207 47.601612 44.53207L 44.532093 44.53207L 44.532093 21.510687L 47.601612 21.510687C 48.449272 21.510687 49.136372 22.1978 49.136372 23.045446L 49.136372 23.812826L 64.864792 23.812826C 63.632694 26.632795 62.9492 29.747276 62.9492 33.021378C 62.9492 36.295479 63.632694 39.409962 64.864792 42.229931ZM 122.804802 23.812826L 122.804802 42.229931M 49.136372 42.229931L 49.136372 23.812826M 138.919769 79.06414L 138.919769 75.994629C 138.919769 75.14698 139.606873 74.459869 140.454529 74.459869L 141.221909 74.459869L 141.221909 60.647038L 140.454529 60.647038C 139.606873 60.647038 138.919769 59.959927 138.919769 59.112278L 138.919769 56.042759L 161.941147 56.042759L 161.941147 59.112278C 161.941147 59.959927 161.254059 60.647038 160.406387 60.647038L 159.639008 60.647038L 159.639008 74.459869L 160.406387 74.459869C 161.254059 74.459869 161.941147 75.14698 161.941147 75.994629L 161.941147 79.06414L 138.919769 79.06414ZM 141.221909 74.459869L 159.639008 74.459869M 141.221909 60.647038L 159.639008 60.647038M 12.302156 42.229931C 12.302156 32.058464 20.547787 23.812826 30.719265 23.812826L 39.927818 23.812826L 39.927818 23.045446C 39.927818 22.1978 40.614918 21.510687 41.462578 21.510687L 44.532093 21.510687L 44.532093 44.53207L 41.462578 44.53207C 40.614918 44.53207 39.927818 43.844955 39.927818 42.997311L 39.927818 42.229931L 33.78878 42.229931C 32.093559 42.229931 30.719265 43.604225 30.719265 45.29945L 30.719265 51.438484L 31.486643 51.438484C 32.334301 51.438484 33.021404 52.125595 33.021404 52.973244L 33.021404 56.042759L 10.000018 56.042759L 10.000018 52.973244C 10.000018 52.125595 10.687119 51.438484 11.534778 51.438484L 12.302156 51.438484L 12.302156 42.229931ZM 39.927818 23.812826L 39.927818 42.229931M 30.719265 51.438484L 12.302156 51.438484M 159.639008 42.229931C 159.639008 32.058464 151.393387 23.812826 141.221909 23.812826L 132.013351 23.812826L 132.013351 23.045446C 132.013351 22.1978 131.326248 21.510687 130.478592 21.510687L 127.409073 21.510687L 127.409073 44.53207L 130.478592 44.53207C 131.326248 44.53207 132.013351 43.844955 132.013351 42.997311L 132.013351 42.229931L 138.15239 42.229931C 139.84761 42.229931 141.221909 43.604225 141.221909 45.29945L 141.221909 51.438484L 140.454529 51.438484C 139.606873 51.438484 138.919769 52.125595 138.919769 52.973244L 138.919769 56.042759L 161.941147 56.042759L 161.941147 52.973244C 161.941147 52.125595 161.254059 51.438484 160.406387 51.438484L 159.639008 51.438484L 159.639008 42.229931ZM 132.013351 23.812826L 132.013351 42.229931M 141.221909 51.438484L 159.639008 51.438484M 108.991966 33.021378C 108.991966 45.735703 98.684898 56.042759 85.970589 56.042759C 73.256271 56.042759 62.9492 45.735703 62.9492 33.021378C 62.9492 20.307055 73.256271 9.999996 85.970589 9.999996C 98.684898 9.999996 108.991966 20.307055 108.991966 33.021378Z"></path></g></g></g><g id="g-root-3.cu_sy_4pft7j1uwlwr0-stroke" data-item-order="-133962" transform="translate(358.3075866699219, 147.064208984375)"><g id="3.cu_sy_4pft7j1uwlwr0-stroke" fill="none" stroke-linecap="round" stroke-linejoin="round" stroke-miterlimit="4" stroke="#969696" stroke-width="2"><g><path d="M 107.07634 65.25132C 108.308464 62.431347 108.991959 59.316868 108.991959 56.042767C 108.991959 52.768661 108.308464 49.654182 107.07634 46.834213L 122.804787 46.834213L 122.804787 46.066833C 122.804787 45.219185 123.49189 44.532074 124.339546 44.532074L 127.409065 44.532074L 127.409065 67.553459L 124.339546 67.553459C 123.49189 67.553459 122.804787 66.866341 122.804787 66.0187L 122.804787 65.25132L 107.07634 65.25132ZM 64.864807 65.25132L 49.13636 65.25132L 49.13636 66.0187C 49.13636 66.866341 48.449261 67.553459 47.601601 67.553459L 44.532082 67.553459L 44.532082 44.532074L 47.601601 44.532074C 48.449261 44.532074 49.13636 45.219185 49.13636 46.066833L 49.13636 46.834213L 64.864807 46.834213C 63.632683 49.654182 62.949192 52.768661 62.949192 56.042767C 62.949192 59.316868 63.632683 62.431347 64.864807 65.25132ZM 122.804787 46.834213L 122.804787 65.25132M 49.13636 65.25132L 49.13636 46.834213M 10.000008 33.021381L 10.000008 29.951866C 10.000008 29.104219 10.687108 28.417107 11.534766 28.417107L 12.302146 28.417107L 12.302146 14.604278L 11.534766 14.604278C 10.687108 14.604278 10.000008 13.917165 10.000008 13.069519L 10.000008 10.000001L 33.021393 10.000001L 33.021393 13.069519C 33.021393 13.917165 32.33429 14.604278 31.486633 14.604278L 30.719254 14.604278L 30.719254 28.417107L 31.486633 28.417107C 32.33429 28.417107 33.021393 29.104219 33.021393 29.951866L 33.021393 33.021381L 10.000008 33.021381ZM 12.302146 28.417107L 30.719254 28.417107M 12.302146 14.604278L 30.719254 14.604278M 159.639008 46.834213C 159.639008 57.005676 151.393372 65.25132 141.221893 65.25132L 132.013336 65.25132L 132.013336 66.0187C 132.013336 66.866341 131.326248 67.553459 130.478577 67.553459L 127.409065 67.553459L 127.409065 44.532074L 130.478577 44.532074C 131.326248 44.532074 132.013336 45.219185 132.013336 46.066833L 132.013336 46.834213L 138.152374 46.834213C 139.847595 46.834213 141.221893 45.459919 141.221893 43.764694L 141.221893 37.62566L 140.454514 37.62566C 139.606857 37.62566 138.919754 36.938549 138.919754 36.0909L 138.919754 33.021381L 161.941147 33.021381L 161.941147 36.0909C 161.941147 36.938549 161.254044 37.62566 160.406387 37.62566L 159.639008 37.62566L 159.639008 46.834213ZM 132.013336 65.25132L 132.013336 46.834213M 141.221893 37.62566L 159.639008 37.62566M 12.302146 46.834213C 12.302146 57.005676 20.547798 65.25132 30.719254 65.25132L 39.927807 65.25132L 39.927807 66.0187C 39.927807 66.866341 40.614906 67.553459 41.462566 67.553459L 44.532082 67.553459L 44.532082 44.532074L 41.462566 44.532074C 40.614906 44.532074 39.927807 45.219185 39.927807 46.066833L 39.927807 46.834213L 33.788773 46.834213C 32.093548 46.834213 30.719254 45.459919 30.719254 43.764694L 30.719254 37.62566L 31.486633 37.62566C 32.33429 37.62566 33.021393 36.938549 33.021393 36.0909L 33.021393 33.021381L 10.000008 33.021381L 10.000008 36.0909C 10.000008 36.938549 10.687108 37.62566 11.534766 37.62566L 12.302146 37.62566L 12.302146 46.834213ZM 39.927807 65.25132L 39.927807 46.834213M 30.719254 37.62566L 12.302146 37.62566M 108.991959 56.042767C 108.991959 68.757088 98.684914 79.064148 85.970573 79.064148C 73.256241 79.064148 62.949192 68.757088 62.949192 56.042767C 62.949192 43.328442 73.256241 33.021381 85.970573 33.021381C 98.684914 33.021381 108.991959 43.328442 108.991959 56.042767Z"></path></g></g></g><g id="g-root-2.cu_sy_9mb331uwlxj9-stroke" data-item-order="-133958" transform="translate(229.38787841796875, 78)"><g id="2.cu_sy_9mb331uwlxj9-stroke" fill="none" stroke-linecap="round" stroke-linejoin="round" stroke-miterlimit="4" stroke="#969696" stroke-width="2"><g><path d="M 107.076332 42.229939C 108.308456 39.409973 108.991951 36.295486 108.991951 33.021385C 108.991951 29.747282 108.308456 26.632793 107.076332 23.81283L 122.804779 23.81283L 122.804779 23.04545C 122.804779 22.197803 123.491875 21.510691 124.339539 21.510691L 127.409058 21.510691L 127.409058 44.532074L 124.339539 44.532074C 123.491875 44.532074 122.804779 43.844963 122.804779 42.997318L 122.804779 42.229939L 107.076332 42.229939ZM 64.864792 42.229939L 49.136349 42.229939L 49.136349 42.997318C 49.136349 43.844963 48.449238 44.532074 47.601589 44.532074L 44.532074 44.532074L 44.532074 21.510691L 47.601589 21.510691C 48.449238 21.510691 49.136349 22.197803 49.136349 23.04545L 49.136349 23.81283L 64.864792 23.81283C 63.632687 26.632793 62.949181 29.747282 62.949181 33.021385C 62.949181 36.295486 63.632687 39.409973 64.864792 42.229939ZM 122.804779 23.81283L 122.804779 42.229939M 49.136349 42.229939L 49.136349 23.81283M 138.919739 79.064148L 138.919739 75.994637C 138.919739 75.146988 139.606842 74.459877 140.454498 74.459877L 141.221878 74.459877L 141.221878 60.647045L 140.454498 60.647045C 139.606842 60.647045 138.919739 59.95993 138.919739 59.112286L 138.919739 56.042767L 161.941132 56.042767L 161.941132 59.112286C 161.941132 59.95993 161.254028 60.647045 160.406372 60.647045L 159.638992 60.647045L 159.638992 74.459877L 160.406372 74.459877C 161.254028 74.459877 161.941132 75.146988 161.941132 75.994637L 161.941132 79.064148L 138.919739 79.064148ZM 141.221878 74.459877L 159.638992 74.459877M 141.221878 60.647045L 159.638992 60.647045M 9.999996 102.085533L 9.999996 99.016014C 9.999996 98.168373 10.687109 97.481262 11.534756 97.481262L 12.302135 97.481262L 12.302135 60.647045L 11.534756 60.647045C 10.687109 60.647045 9.999996 59.95993 9.999996 59.112286L 9.999996 56.042767L 33.021381 56.042767L 33.021381 59.112286C 33.021381 59.95993 32.334267 60.647045 31.486622 60.647045L 30.719242 60.647045L 30.719242 97.481262L 31.486622 97.481262C 32.334267 97.481262 33.021381 98.168373 33.021381 99.016014L 33.021381 102.085533L 9.999996 102.085533ZM 12.302135 97.481262L 30.719242 97.481262M 12.302135 60.647045L 30.719242 60.647045M 159.638992 42.229939C 159.638992 32.058475 151.393341 23.81283 141.221878 23.81283L 132.013336 23.81283L 132.013336 23.04545C 132.013336 22.197803 131.326233 21.510691 130.478577 21.510691L 127.409058 21.510691L 127.409058 44.532074L 130.478577 44.532074C 131.326233 44.532074 132.013336 43.844963 132.013336 42.997318L 132.013336 42.229939L 138.152374 42.229939C 139.847595 42.229939 141.221878 43.604237 141.221878 45.299454L 141.221878 51.438492L 140.454498 51.438492C 139.606842 51.438492 138.919739 52.125603 138.919739 52.973251L 138.919739 56.042767L 161.941132 56.042767L 161.941132 52.973251C 161.941132 52.125603 161.254028 51.438492 160.406372 51.438492L 159.638992 51.438492L 159.638992 42.229939ZM 132.013336 23.81283L 132.013336 42.229939M 141.221878 51.438492L 159.638992 51.438492M 12.302135 42.229939C 12.302135 32.058475 20.547775 23.81283 30.719242 23.81283L 39.927795 23.81283L 39.927795 23.04545C 39.927795 22.197803 40.614906 21.510691 41.462555 21.510691L 44.532074 21.510691L 44.532074 44.532074L 41.462555 44.532074C 40.614906 44.532074 39.927795 43.844963 39.927795 42.997318L 39.927795 42.229939L 33.788761 42.229939C 32.093536 42.229939 30.719242 43.604237 30.719242 45.299454L 30.719242 51.438492L 31.486622 51.438492C 32.334267 51.438492 33.021381 52.125603 33.021381 52.973251L 33.021381 56.042767L 9.999996 56.042767L 9.999996 52.973251C 9.999996 52.125603 10.687109 51.438492 11.534756 51.438492L 12.302135 51.438492L 12.302135 42.229939ZM 39.927795 23.81283L 39.927795 42.229939M 30.719242 51.438492L 12.302135 51.438492M 108.991951 33.021385C 108.991951 45.735706 98.684898 56.042767 85.970566 56.042767C 73.256241 56.042767 62.949181 45.735706 62.949181 33.021385C 62.949181 20.30706 73.256241 10 85.970566 10C 98.684898 10 108.991951 20.30706 108.991951 33.021385Z"></path></g></g></g><g id="g-root-1.cu_sy_1qf3ctb1uwly4u-stroke" data-item-order="-133954" transform="translate(135.00018310546875, 170.085693359375)"><g id="1.cu_sy_1qf3ctb1uwly4u-stroke" fill="none" stroke-linecap="round" stroke-linejoin="round" stroke-miterlimit="4" stroke="#969696" stroke-width="2"><g><path d="M 104.387672 56.04277L 104.387672 52.973251C 104.387672 52.125607 105.074783 51.438492 105.922432 51.438492L 106.689812 51.438492L 106.689812 14.604279L 105.922432 14.604279C 105.074783 14.604279 104.387672 13.917167 104.387672 13.06952L 104.387672 10.000002L 127.409058 10.000002L 127.409058 13.06952C 127.409058 13.917167 126.721947 14.604279 125.874298 14.604279L 125.106918 14.604279L 125.106918 51.438492L 125.874298 51.438492C 126.721947 51.438492 127.409058 52.125607 127.409058 52.973251L 127.409058 56.04277L 104.387672 56.04277ZM 106.689812 51.438492L 125.106918 51.438492M 106.689812 14.604279L 125.106918 14.604279M 72.544266 88.272705C 73.776367 85.452736 74.459877 82.338257 74.459877 79.064156C 74.459877 75.790054 73.776367 72.675568 72.544266 69.855598L 88.272705 69.855598L 88.272705 69.088219C 88.272705 68.240562 88.959816 67.553459 89.807465 67.553459L 92.876984 67.553459L 92.876984 90.574844L 89.807465 90.574844C 88.959816 90.574844 88.272705 89.887749 88.272705 89.040085L 88.272705 88.272705L 72.544266 88.272705ZM 30.332716 88.272705L 14.604276 88.272705L 14.604276 89.040085C 14.604276 89.887749 13.917163 90.574844 13.069517 90.574844L 9.999999 90.574844L 9.999999 67.553459L 13.069517 67.553459C 13.917163 67.553459 14.604276 68.240562 14.604276 69.088219L 14.604276 69.855598L 30.332716 69.855598C 29.100613 72.675568 28.417107 75.790054 28.417107 79.064156C 28.417107 82.338257 29.100613 85.452736 30.332716 88.272705ZM 88.272705 69.855598L 88.272705 88.272705M 14.604276 88.272705L 14.604276 69.855598M 125.106918 69.855598C 125.106918 80.027054 116.861275 88.272705 106.689812 88.272705L 97.481255 88.272705L 97.481255 89.040085C 97.481255 89.887749 96.794144 90.574844 95.946495 90.574844L 92.876984 90.574844L 92.876984 67.553459L 95.946495 67.553459C 96.794144 67.553459 97.481255 68.240562 97.481255 69.088219L 97.481255 69.855598L 103.620293 69.855598C 105.315514 69.855598 106.689812 68.481308 106.689812 66.786079L 106.689812 60.647045L 105.922432 60.647045C 105.074783 60.647045 104.387672 59.959946 104.387672 59.112289L 104.387672 56.04277L 127.409058 56.04277L 127.409058 59.112289C 127.409058 59.959946 126.721947 60.647045 125.874298 60.647045L 125.106918 60.647045L 125.106918 69.855598ZM 97.481255 88.272705L 97.481255 69.855598M 106.689812 60.647045L 125.106918 60.647045M 74.459877 79.064156C 74.459877 91.778488 64.152817 102.085541 51.438492 102.085541C 38.724167 102.085541 28.417107 91.778488 28.417107 79.064156C 28.417107 66.349815 38.724167 56.04277 51.438492 56.04277C 64.152817 56.04277 74.459877 66.349815 74.459877 79.064156Z"></path></g></g></g><g id="g-root-stat_147dd3z1uwylms-stroke" data-item-order="0" transform="translate(287.3583984375, 83.021484375)"><g id="stat_147dd3z1uwylms-stroke" fill="none" stroke-linecap="round" stroke-linejoin="round" stroke-miterlimit="4" stroke="#1eabda" stroke-width="2"><g><path d="M 25.75 14.5C 24.093145 14.5 22.75 15.843145 22.75 17.5L 22.75 28L 28.75 28L 28.75 17.5C 28.75 15.843145 27.406855 14.5 25.75 14.5ZM 13.75 14.5L 16.75 14.5C 17.578426 14.5 18.25 15.171573 18.25 16L 18.25 35.5L 13.75 35.5ZM 13.75 14.5C 12.093145 14.5 10.75 15.843145 10.75 17.5L 10.75 23.5M 12.25 35.5L 42.25 35.5C 42.25 35.5 43.75 35.5 43.75 37L 43.75 43C 43.75 43 43.75 44.5 42.25 44.5L 12.25 44.5C 12.25 44.5 10.75 44.5 10.75 43L 10.75 37C 10.75 37 10.75 35.5 12.25 35.5M 22.75 35.5L 22.75 28L 28.75 28L 28.75 35.5M 37 16.630001C 36.867756 17.87291 35.752808 18.77317 34.509933 18.640598C 33.267059 18.508024 32.367096 17.392838 32.5 16.15L 32.665001 14.65C 32.801693 13.40736 33.919861 12.51081 35.162502 12.6475C 36.405144 12.784191 37.301693 13.902359 37.165001 15.145ZM 44.5 17.5C 44.367146 18.742371 43.252468 19.641926 42.010063 19.509401C 40.767654 19.376879 39.867805 18.262442 39.999996 17.02L 40.165001 15.52C 40.297241 14.27709 41.412186 13.376828 42.65506 13.509401C 43.897934 13.641975 44.797901 14.75716 44.664997 16ZM 35.095001 35.5L 36.099998 26.139999L 37.915001 23.32L 39.084999 26.455L 38.110001 35.5M 37.915001 23.32L 37.060001 16.630001M 37.915001 23.32L 40.045002 16.959999M 15.73 14.5L 15.73 11.32M 14.23 11.32L 17.23 11.32"></path></g></g></g><g id="g-root-myth_hs5odb1uwsxdz-stroke" data-item-order="0" transform="translate(803.0374145507812, 83.021484375)"><g id="myth_hs5odb1uwsxdz-stroke" fill="none" stroke-linecap="round" stroke-linejoin="round" stroke-miterlimit="4" stroke="#de58a9" stroke-width="2"><g><path d="M 31.1485 19.903L 17.759501 19.903M 32.033501 20.580999L 32.033501 27.060999M 16.862499 45.077499L 16.862499 20.5825M 21.919001 23.966499L 21.919001 45.077499M 26.9755 23.966499L 26.9755 26.716M 14.431 15.166C 14.883654 14.780781 15.468328 14.586607 16.061501 14.6245C 17.638918 14.723326 18.837976 16.081499 18.740499 17.659L 18.740499 17.6695C 18.612129 19.640347 16.910341 21.133944 14.939501 21.005501L 14.9395 21.005501C 12.474956 20.849703 10.603312 18.725552 10.759 16.261L 10.759 16.2505C 10.759 13.224256 13.212255 10.771 16.238501 10.771L 32.657501 10.771C 35.683502 10.771 38.13633 13.224499 38.135498 16.2505L 38.135498 16.2505C 38.294724 18.71347 36.426991 20.839098 33.964001 20.998001L 33.964001 20.997999C 33.017639 21.059229 32.085758 20.741722 31.373652 20.115427C 30.661543 19.489132 30.227629 18.605431 30.1675 17.659L 30.1675 17.659C 30.06826 16.081461 31.266033 14.721882 32.843498 14.6215L 32.843498 14.6215C 33.449856 14.58267 34.046749 14.786672 34.502499 15.188499M 35.739998 32.621502C 32.939705 31.15107 29.84399 30.330742 26.682999 30.2215C 26.56838 30.21603 26.455744 30.252865 26.366501 30.325001C 26.283352 30.389595 26.233757 30.488234 26.231499 30.593498L 26.231501 42.870998C 26.247433 43.086395 26.429585 43.251389 26.6455 43.245998C 29.536732 42.873196 32.466469 43.538132 34.913498 45.122501C 35.178459 45.21769 35.461563 45.251541 35.741501 45.2215M 35.739998 32.621502C 38.540913 31.151287 41.637066 30.330978 44.7985 30.221498C 44.913082 30.216312 45.02562 30.253115 45.114998 30.325001C 45.199131 30.390106 45.248863 30.490122 45.249996 30.596498L 45.25 42.870998C 45.23407 43.086395 45.051918 43.251389 44.836002 43.245998C 41.944771 42.873196 39.015034 43.538132 36.568001 45.122501C 36.303017 45.21759 36.019936 45.251434 35.739998 45.2215M 35.739998 32.621502L 35.739998 45.225998M 16.862499 23.966499L 32.033501 23.966499M 29.240499 34.568501C 30.482708 34.582874 31.701824 34.906082 32.788002 35.509003M 29.240499 38.453499C 30.482641 38.468376 31.701635 38.79155 32.788002 39.394001M 42.267998 34.568501C 41.026295 34.583061 39.807709 34.906265 38.722 35.509003M 42.267998 38.453499C 41.026367 38.468624 39.807919 38.79179 38.722 39.394001"></path></g></g></g><g id="g-root-acco_me7xcv1uwsy6m-stroke" data-item-order="0" transform="translate(545.1979370117188, 129.064208984375)"><g id="acco_me7xcv1uwsy6m-stroke" fill="none" stroke-linecap="round" stroke-linejoin="round" stroke-miterlimit="4" stroke="#e0cb15" stroke-width="2"><g><path d="M 13.75 10.75L 42.25 10.75C 42.25 10.75 45.25 10.75 45.25 13.75L 45.25 42.25C 45.25 42.25 45.25 45.25 42.25 45.25L 13.75 45.25C 13.75 45.25 10.75 45.25 10.75 42.25L 10.75 13.75C 10.75 13.75 10.75 10.75 13.75 10.75M 10.75 18.25L 45.25 18.25M 31 22.75L 40 22.75C 40 22.75 40.75 22.75 40.75 23.5L 40.75 29.5C 40.75 29.5 40.75 30.25 40 30.25L 31 30.25C 31 30.25 30.25 30.25 30.25 29.5L 30.25 23.5C 30.25 23.5 30.25 22.75 31 22.75M 31 33.25L 40 33.25C 40 33.25 40.75 33.25 40.75 34L 40.75 40C 40.75 40 40.75 40.75 40 40.75L 31 40.75C 31 40.75 30.25 40.75 30.25 40L 30.25 34C 30.25 34 30.25 33.25 31 33.25M 16 22.75L 25 22.75C 25 22.75 25.75 22.75 25.75 23.5L 25.75 34C 25.75 34 25.75 34.75 25 34.75L 16 34.75C 16 34.75 15.25 34.75 15.25 34L 15.25 23.5C 15.25 23.5 15.25 22.75 16 22.75M 18.25 28C 18.25 29.242641 19.25736 30.25 20.5 30.25C 21.742641 30.25 22.75 29.242641 22.75 28C 22.75 26.75736 21.742641 25.75 20.5 25.75C 19.25736 25.75 18.25 26.75736 18.25 28M 16.75 34.75C 16.561996 32.477821 18.231167 30.474815 20.5 30.25C 22.768833 30.474815 24.438004 32.477821 24.25 34.75M 16 37.75L 22 37.75M 16 40.75L 22 40.75M 16 14.125C 16.207108 14.125 16.375 14.292893 16.375 14.5C 16.375 14.707107 16.207108 14.875 16 14.875C 15.792893 14.875 15.625 14.707107 15.625 14.5C 15.625 14.292893 15.792893 14.125 16 14.125M 20.5 14.125C 20.707108 14.125 20.875 14.292893 20.875 14.5C 20.875 14.707107 20.707108 14.875 20.5 14.875C 20.292892 14.875 20.125 14.707107 20.125 14.5C 20.125 14.292893 20.292892 14.125 20.5 14.125M 25 14.125C 25.207108 14.125 25.375 14.292893 25.375 14.5C 25.375 14.707107 25.207108 14.875 25 14.875C 24.792892 14.875 24.625 14.707107 24.625 14.5C 24.625 14.292893 24.792892 14.125 25 14.125"></path></g></g></g><g id="g-root-go_1q9h31b1uwx5ot-stroke" data-item-order="0" transform="translate(416.2781677246094, 175.10693359375)"><g id="go_1q9h31b1uwx5ot-stroke" fill="none" stroke-linecap="round" stroke-linejoin="round" stroke-miterlimit="4" stroke="#3cc583" stroke-width="2"><g><path d="M 10.75 12.25L 45.251499 12.25L 45.251499 33.25L 10.75 33.25ZM 10.75 10.75L 10.75 45.25M 45.251499 10.75L 45.251499 45.25M 34.75 25C 34.75 26.242641 33.742641 27.25 32.5 27.25C 31.25736 27.25 30.25 26.242641 30.25 25L 30.25 20.5C 30.25 19.25736 31.25736 18.25 32.5 18.25C 33.742641 18.25 34.75 19.25736 34.75 20.5ZM 25.75 21.25L 25.75 20.5C 25.75 19.25736 24.742641 18.25 23.5 18.25C 22.257359 18.25 21.25 19.25736 21.25 20.5L 21.25 25C 21.25 26.242641 22.257359 27.25 23.5 27.25C 24.742641 27.25 25.75 26.242641 25.75 25L 25.75 24.25L 24.25 24.25"></path></g></g></g><g id="g-root-cent_4pft7j1uwymfi-stroke" data-item-order="0" transform="translate(158.4386749267578, 221.149658203125)"><g id="cent_4pft7j1uwymfi-stroke" fill="none" stroke-linecap="round" stroke-linejoin="round" stroke-miterlimit="4" stroke="#4e88e7" stroke-width="2"><g><path d="M 27.25 41.5C 27.25 36.943653 23.556349 33.25 19 33.25C 14.443651 33.25 10.75 36.943653 10.75 41.5L 10.75 45.25L 27.25 45.25ZM 19 33.25L 32.5 33.25C 37.056351 33.25 40.75 36.943653 40.75 41.5L 40.75 45.25L 27.25 45.25M 17.5 39.25L 20.5 39.25C 20.914213 39.25 21.25 39.585785 21.25 40L 21.25 45.25L 21.25 45.25L 16.75 45.25L 16.75 45.25L 16.75 40C 16.75 39.585785 17.085787 39.25 17.5 39.25ZM 40.75 23.5C 40.75 18.943651 37.056351 15.25 32.5 15.25C 27.943653 15.25 24.25 18.943651 24.25 23.5L 24.25 27.25L 40.75 27.25ZM 45.25 27.25L 40.75 27.25M 32.5 15.25L 45.25 15.25M 31 21.25L 34 21.25C 34.414215 21.25 34.75 21.585787 34.75 22L 34.75 27.25L 34.75 27.25L 30.25 27.25L 30.25 27.25L 30.25 22C 30.25 21.585787 30.585787 21.25 31 21.25ZM 10.75 10.75L 21.25 10.75L 21.25 16.75L 10.75 16.75ZM 10.75 16.75L 10.75 28.75"></path></g></g></g><g id="g-root-2_1upx28v1uwsxkz-stroke" data-item-order="0" transform="translate(674.1176147460938, 221.149658203125)"><g id="2_1upx28v1uwsxkz-stroke" fill="none" stroke-linecap="round" stroke-linejoin="round" stroke-miterlimit="4" stroke="#de8431" stroke-width="2"><g><path d="M 19.505501 22.247499L 11.7325 22.247499M 25.0975 37.672001L 19.505501 22.247499M 14.629 22.247499L 22.2925 43.846001M 25.0795 22.247499L 30.652 22.247499M 22.1215 44.2225L 28.5355 30.1015M 36.2425 37.666L 30.652 22.247499M 25.775501 22.247499L 33.438999 43.846001M 40.811501 26.372499C 40.562065 25.645256 40.177868 24.971508 39.679001 24.386499C 38.859718 23.723785 37.998966 23.114046 37.101997 22.560999C 36.730156 22.293846 36.410385 21.960854 36.158501 21.578501C 35.238998 20.0875 35.952999 16.869999 38.244999 16.865499C 42.145 16.855 43.536999 21.2635 40.945 27.2365C 39.9715 29.4865 33.16 44.4655 33.16 44.4655M 45.25 28C 45.214569 35.57761 40.238049 42.244801 32.983437 44.433876C 25.728825 46.622948 17.895073 43.821247 13.67412 37.528C 9.453168 31.234749 9.833514 22.923761 14.611632 17.042347C 19.38975 11.160935 27.446659 9.08646 34.471001 11.929"></path></g></g></g></g></g></svg>